<?xml version="1.0" encoding="utf-8" standalone="no"?>
<!DOCTYPE svg PUBLIC "-//W3C//DTD SVG 1.1//EN"
  "http://www.w3.org/Graphics/SVG/1.1/DTD/svg11.dtd">
<!-- Created with matplotlib (https://matplotlib.org/) -->
<svg height="2160pt" version="1.1" viewBox="0 0 2160 2160" width="2160pt" xmlns="http://www.w3.org/2000/svg" xmlns:xlink="http://www.w3.org/1999/xlink">
 <defs>
  <style type="text/css">
*{stroke-linecap:butt;stroke-linejoin:round;}
  </style>
 </defs>
 <g id="figure_1">
  <g id="patch_1">
   <path d="M 0 2160 
L 2160 2160 
L 2160 0 
L 0 0 
z
" style="fill:#ffffff;"/>
  </g>
  <g id="axes_1">
   <g id="patch_2">
    <path d="M 1772.28 1090.8 
C 1772.28 1086.0196 1772.228475 1081.23934 1772.125435 1076.460051 
C 1772.022395 1071.680762 1771.867845 1066.902722 1771.661812 1062.126765 
L 1107 1090.8 
L 1772.28 1090.8 
z
" style="fill:#e29e0c;"/>
   </g>
   <g id="patch_3">
    <path d="M 1771.661812 1062.126765 
C 1767.485604 965.319913 1742.209751 870.584067 1697.606885 784.563188 
C 1653.004019 698.542309 1590.141787 623.295455 1513.428806 564.099797 
L 1107 1090.8 
L 1771.661812 1062.126765 
z
" style="fill:#fc7000;"/>
   </g>
   <g id="patch_4">
    <path d="M 1513.428806 564.099797 
C 1488.909122 545.179155 1463.098108 527.993798 1436.184154 512.669157 
C 1409.270199 497.344517 1381.318943 483.917967 1352.534396 472.487507 
L 1107 1090.8 
L 1513.428806 564.099797 
z
" style="fill:#e2720c;"/>
   </g>
   <g id="patch_5">
    <path d="M 1352.534396 472.487507 
C 1267.745805 438.817614 1176.930767 422.945276 1085.748127 425.859524 
C 994.565487 428.773773 904.949333 450.412794 822.483806 489.428223 
C 740.01828 528.443652 666.45257 584.007926 606.370685 652.658736 
C 546.288799 721.309547 500.965146 801.590732 473.22392 888.499829 
C 445.482695 975.408926 435.912321 1067.102493 445.109145 1157.866942 
C 454.30597 1248.631391 482.074917 1336.541503 526.685656 1416.119444 
C 571.296395 1495.697385 631.802679 1565.255215 704.434256 1620.458664 
C 777.065833 1675.662113 860.282104 1715.340251 948.897714 1737.020663 
L 1107 1090.8 
L 1352.534396 472.487507 
z
" style="fill:#226b01;"/>
   </g>
   <g id="patch_6">
    <path d="M 948.897714 1737.020663 
C 1001.144434 1749.803179 1054.749066 1756.202458 1108.536583 1756.078225 
C 1162.324101 1755.953993 1215.8986 1749.307165 1268.085716 1736.283439 
L 1107 1090.8 
L 948.897714 1737.020663 
z
" style="fill:#03fcbe;"/>
   </g>
   <g id="patch_7">
    <path d="M 1268.085716 1736.283439 
C 1277.804065 1733.858145 1287.466402 1731.213682 1297.065337 1728.352073 
C 1306.664271 1725.490464 1316.197356 1722.412439 1325.657299 1719.120351 
L 1107 1090.8 
L 1268.085716 1736.283439 
z
" style="fill:#099ba3;"/>
   </g>
   <g id="patch_8">
    <path d="M 1325.657299 1719.120351 
C 1361.044075 1706.805651 1395.327347 1691.523477 1428.141248 1673.436917 
C 1460.95515 1655.350358 1492.182536 1634.523982 1521.490153 1611.180045 
L 1107 1090.8 
L 1325.657299 1719.120351 
z
" style="fill:#0b37ce;"/>
   </g>
   <g id="patch_9">
    <path d="M 1521.490153 1611.180045 
C 1581.823645 1563.123555 1633.342479 1504.938419 1673.739865 1439.229913 
C 1714.137251 1373.521407 1742.801113 1301.285104 1758.44801 1225.755434 
L 1107 1090.8 
L 1521.490153 1611.180045 
z
" style="fill:#8231d0;"/>
   </g>
   <g id="patch_10">
    <path d="M 1758.44801 1225.755434 
C 1760.410614 1216.281678 1762.166325 1206.766238 1763.71389 1197.215903 
C 1765.261456 1187.665568 1766.600506 1178.082611 1767.730087 1168.47387 
L 1107 1090.8 
L 1758.44801 1225.755434 
z
" style="fill:#6618d5;"/>
   </g>
   <g id="patch_11">
    <path d="M 1767.730087 1168.47387 
C 1768.673608 1160.447842 1769.47081 1152.405288 1770.121296 1144.350213 
C 1770.771782 1136.295138 1771.275443 1128.228879 1771.63203 1120.155453 
L 1107 1090.8 
L 1767.730087 1168.47387 
z
" style="fill:#fe7ac5;"/>
   </g>
   <g id="patch_12">
    <path d="M 1771.63203 1120.155453 
C 1771.847988 1115.265999 1772.009984 1110.37431 1772.117988 1105.481281 
C 1772.225993 1100.588252 1772.28 1095.69418 1772.28 1090.799959 
L 1107 1090.8 
L 1771.63203 1120.155453 
z
" style="fill:#e20c1d;"/>
   </g>
   <g id="patch_13">
    <path d="M 1639.224 1090.8 
C 1639.224 1085.498598 1639.14479 1080.197492 1638.986397 1074.898457 
C 1638.828005 1069.599421 1638.590446 1064.303048 1638.273802 1059.011111 
L 1107 1090.8 
L 1639.224 1090.8 
z
" style="fill:#e29e0c;"/>
   </g>
   <g id="patch_14">
    <path d="M 1638.273802 1059.011111 
C 1637.767157 1050.543766 1637.058157 1042.089743 1636.147411 1033.656288 
C 1635.236665 1025.222833 1634.124433 1016.812356 1632.811667 1008.432066 
L 1107 1090.8 
L 1638.273802 1059.011111 
z
" style="fill:#fc7000;"/>
   </g>
   <g id="patch_15">
    <path d="M 1632.811667 1008.432066 
C 1631.280082 998.654893 1629.476093 988.922339 1627.401804 979.24576 
C 1625.327515 969.56918 1622.983734 959.952337 1620.373195 950.406451 
L 1107 1090.8 
L 1632.811667 1008.432066 
z
" style="fill:#e2720c;"/>
   </g>
   <g id="patch_16">
    <path d="M 1620.373195 950.406451 
C 1593.792608 853.209954 1540.147506 765.53194 1465.706761 697.618304 
C 1391.266016 629.704668 1299.046827 584.308056 1199.825764 566.733436 
C 1100.604702 549.158815 998.403351 560.118513 905.164779 598.331798 
C 811.926207 636.545083 731.429519 700.463112 673.081414 782.616537 
C 614.73331 864.769961 580.898729 961.828976 575.53152 1062.451436 
C 570.164311 1163.073897 593.482017 1263.181418 642.75977 1351.075613 
C 692.037523 1438.969808 765.27802 1511.088188 853.922507 1559.003128 
C 942.566994 1606.918067 1043.022571 1628.687499 1143.550179 1621.767485 
L 1107 1090.8 
L 1620.373195 950.406451 
z
" style="fill:#226b01;"/>
   </g>
   <g id="patch_17">
    <path d="M 1143.550179 1621.767485 
C 1166.123312 1620.21362 1188.5744 1617.22185 1210.766738 1612.810393 
C 1232.959075 1608.398936 1254.847528 1602.576763 1276.298815 1595.379327 
L 1107 1090.8 
L 1143.550179 1621.767485 
z
" style="fill:#03fcbe;"/>
   </g>
   <g id="patch_18">
    <path d="M 1276.298815 1595.379327 
C 1277.304005 1595.042061 1278.308184 1594.701792 1279.31134 1594.358525 
C 1280.314496 1594.015258 1281.316624 1593.668994 1282.317711 1593.319737 
L 1107 1090.8 
L 1276.298815 1595.379327 
z
" style="fill:#099ba3;"/>
   </g>
   <g id="patch_19">
    <path d="M 1282.317711 1593.319737 
C 1352.648227 1568.783019 1417.050613 1529.752658 1471.34785 1478.760089 
C 1525.645087 1427.767519 1568.637366 1365.93953 1597.536288 1297.286165 
L 1107 1090.8 
L 1282.317711 1593.319737 
z
" style="fill:#0b37ce;"/>
   </g>
   <g id="patch_20">
    <path d="M 1597.536288 1297.286165 
C 1599.181699 1293.377266 1600.780328 1289.448839 1602.331832 1285.501725 
C 1603.883337 1281.554612 1605.387607 1277.589095 1606.84432 1273.606023 
L 1107 1090.8 
L 1597.536288 1297.286165 
z
" style="fill:#8231d0;"/>
   </g>
   <g id="patch_21">
    <path d="M 1606.84432 1273.606023 
C 1610.729169 1262.983726 1614.274426 1252.240291 1617.474691 1241.392086 
C 1620.674955 1230.543881 1623.5286 1219.596418 1626.031278 1208.566375 
L 1107 1090.8 
L 1606.84432 1273.606023 
z
" style="fill:#6618d5;"/>
   </g>
   <g id="patch_22">
    <path d="M 1626.031278 1208.566375 
C 1629.785692 1192.01956 1632.746686 1175.302669 1634.904114 1158.472986 
C 1637.061541 1141.643304 1638.412935 1124.720076 1638.953664 1107.761293 
L 1107 1090.8 
L 1626.031278 1208.566375 
z
" style="fill:#fe7ac5;"/>
   </g>
   <g id="patch_23">
    <path d="M 1638.953664 1107.761293 
C 1639.043769 1104.935352 1639.111354 1102.108738 1639.156412 1099.281721 
C 1639.20147 1096.454703 1639.224 1093.627371 1639.224 1090.799995 
L 1107 1090.8 
L 1638.953664 1107.761293 
z
" style="fill:#e20c1d;"/>
   </g>
   <g id="patch_24">
    <path d="M 1506.168 1090.8 
C 1506.168 1086.103162 1506.085101 1081.406689 1505.919343 1076.712777 
C 1505.753585 1072.018864 1505.504993 1067.328243 1505.173683 1062.643105 
L 1107 1090.8 
L 1506.168 1090.8 
z
" style="fill:#e29e0c;"/>
   </g>
   <g id="patch_25">
    <path d="M 1505.173683 1062.643105 
C 1505.008031 1060.300581 1504.82171 1057.959565 1504.614742 1055.620329 
C 1504.407774 1053.281094 1504.180167 1050.943731 1503.931947 1048.608512 
L 1107 1090.8 
L 1505.173683 1062.643105 
z
" style="fill:#fc7000;"/>
   </g>
   <g id="patch_26">
    <path d="M 1503.931947 1048.608512 
C 1503.683727 1046.273294 1503.414905 1043.940311 1503.125511 1041.609838 
C 1502.836116 1039.279364 1502.526162 1036.951489 1502.195684 1034.626485 
L 1107 1090.8 
L 1503.931947 1048.608512 
z
" style="fill:#e2720c;"/>
   </g>
   <g id="patch_27">
    <path d="M 1502.195684 1034.626485 
C 1491.213493 957.363836 1457.810874 884.991963 1406.140627 826.508537 
C 1354.470381 768.025112 1286.766393 725.95858 1211.446 705.538887 
C 1136.125607 685.119194 1056.445176 687.229154 982.311021 711.606447 
C 908.176865 735.98374 842.794066 781.574448 794.291377 842.710481 
C 745.788688 903.846515 716.263051 977.884747 709.385258 1055.620333 
C 702.507464 1133.35592 718.574866 1211.428076 755.589873 1280.130439 
C 792.604881 1348.832802 848.967205 1405.195125 917.669569 1442.210131 
C 986.371933 1479.225137 1064.44409 1495.292537 1142.179676 1488.414741 
L 1107 1090.8 
L 1502.195684 1034.626485 
z
" style="fill:#226b01;"/>
   </g>
   <g id="patch_28">
    <path d="M 1142.179676 1488.414741 
C 1167.931286 1486.136322 1193.400758 1481.361567 1218.229014 1474.157795 
C 1243.057269 1466.954022 1267.127079 1457.355245 1290.099098 1445.496789 
L 1107 1090.8 
L 1142.179676 1488.414741 
z
" style="fill:#03fcbe;"/>
   </g>
   <g id="patch_29">
    <path d="M 1290.099098 1445.496789 
C 1292.18584 1444.419586 1294.263035 1443.323989 1296.330441 1442.210126 
C 1298.397846 1441.096262 1300.455382 1439.964176 1302.502808 1438.814 
L 1107 1090.8 
L 1290.099098 1445.496789 
z
" style="fill:#099ba3;"/>
   </g>
   <g id="patch_30">
    <path d="M 1302.502808 1438.814 
C 1345.621143 1414.591539 1383.86467 1382.565257 1415.28152 1344.369708 
C 1446.69837 1306.174159 1470.744809 1262.470396 1486.193557 1215.488967 
L 1107 1090.8 
L 1302.502808 1438.814 
z
" style="fill:#0b37ce;"/>
   </g>
   <g id="patch_31">
    <path d="M 1486.193557 1215.488967 
C 1488.394371 1208.796039 1490.417599 1202.046016 1492.261115 1195.245992 
C 1494.104632 1188.445969 1495.76779 1181.598329 1497.248842 1174.71027 
L 1107 1090.8 
L 1486.193557 1215.488967 
z
" style="fill:#8231d0;"/>
   </g>
   <g id="patch_32">
    <path d="M 1497.248842 1174.71027 
C 1497.742501 1172.41437 1498.215889 1170.114157 1498.668951 1167.809902 
C 1499.122013 1165.505647 1499.554732 1163.197438 1499.967058 1160.885546 
L 1107 1090.8 
L 1497.248842 1174.71027 
z
" style="fill:#6618d5;"/>
   </g>
   <g id="patch_33">
    <path d="M 1499.967058 1160.885546 
C 1501.616519 1151.637077 1502.938973 1142.33326 1503.931948 1132.991477 
C 1504.924923 1123.649695 1505.587801 1114.275769 1505.919344 1104.887213 
L 1107 1090.8 
L 1499.967058 1160.885546 
z
" style="fill:#fe7ac5;"/>
   </g>
   <g id="patch_34">
    <path d="M 1505.919344 1104.887213 
C 1506.002221 1102.540302 1506.064386 1100.192706 1506.105831 1097.844698 
C 1506.147276 1095.496691 1506.168 1093.148363 1506.168 1090.799989 
L 1107 1090.8 
L 1505.919344 1104.887213 
z
" style="fill:#e20c1d;"/>
   </g>
   <g id="patch_35">
    <path d="M 1373.112 1090.8 
C 1373.112 1090.8 1373.112 1090.8 1373.112 1090.8 
L 1107 1090.8 
L 1373.112 1090.8 
z
" style="fill:#e29e0c;"/>
   </g>
   <g id="patch_36">
    <path d="M 1373.112 1090.8 
C 1373.112 1088.266577 1373.075822 1085.733283 1373.003478 1083.200892 
C 1372.931133 1080.668502 1372.822629 1078.137274 1372.677999 1075.607983 
L 1107 1090.8 
L 1373.112 1090.8 
z
" style="fill:#fc7000;"/>
   </g>
   <g id="patch_37">
    <path d="M 1372.677999 1075.607983 
C 1372.677999 1075.607983 1372.677999 1075.607983 1372.677999 1075.607983 
L 1107 1090.8 
L 1372.677999 1075.607983 
z
" style="fill:#e2720c;"/>
   </g>
   <g id="patch_38">
    <path d="M 1372.677999 1075.607983 
C 1369.876506 1026.615464 1353.577113 979.339518 1325.589927 939.030305 
C 1297.602741 898.721092 1259.003611 866.92813 1214.079106 847.18214 
C 1169.154601 827.43615 1119.631656 820.496184 1071.009967 827.132949 
C 1022.388278 833.769713 976.536903 853.728087 938.547798 884.791621 
C 900.558693 915.855156 871.89219 956.829743 855.731805 1003.165013 
C 839.57142 1049.500283 836.538372 1099.415069 846.96949 1147.366159 
C 857.400608 1195.317249 880.894913 1239.461364 914.843278 1274.896146 
C 948.791644 1310.330927 991.889068 1335.694233 1039.349431 1348.169379 
L 1107 1090.8 
L 1372.677999 1075.607983 
z
" style="fill:#226b01;"/>
   </g>
   <g id="patch_39">
    <path d="M 1039.349431 1348.169379 
C 1061.431095 1353.973632 1084.168217 1356.911998 1106.999977 1356.912 
C 1129.831736 1356.912002 1152.568859 1353.97364 1174.650524 1348.16939 
L 1107 1090.8 
L 1039.349431 1348.169379 
z
" style="fill:#03fcbe;"/>
   </g>
   <g id="patch_40">
    <path d="M 1174.650524 1348.16939 
C 1177.100716 1347.525348 1179.541587 1346.846349 1181.972389 1346.132602 
C 1184.403191 1345.418854 1186.823676 1344.670431 1189.233105 1343.88756 
L 1107 1090.8 
L 1174.650524 1348.16939 
z
" style="fill:#099ba3;"/>
   </g>
   <g id="patch_41">
    <path d="M 1189.233105 1343.88756 
C 1230.392785 1330.513974 1267.675401 1307.299386 1297.837361 1276.263469 
C 1327.999322 1245.227551 1350.139805 1207.297226 1362.332587 1165.772437 
L 1107 1090.8 
L 1189.233105 1343.88756 
z
" style="fill:#0b37ce;"/>
   </g>
   <g id="patch_42">
    <path d="M 1362.332587 1165.772437 
C 1363.760156 1160.910586 1365.04857 1156.008952 1366.196254 1151.073532 
C 1367.343937 1146.138111 1368.350421 1141.170918 1369.214476 1136.178026 
L 1107 1090.8 
L 1362.332587 1165.772437 
z
" style="fill:#8231d0;"/>
   </g>
   <g id="patch_43">
    <path d="M 1369.214476 1136.178026 
C 1369.646481 1133.681708 1370.042816 1131.179348 1370.40336 1128.671711 
C 1370.763904 1126.164075 1371.08862 1123.651417 1371.377409 1121.134507 
L 1107 1090.8 
L 1369.214476 1136.178026 
z
" style="fill:#6618d5;"/>
   </g>
   <g id="patch_44">
    <path d="M 1371.377409 1121.134507 
C 1371.666197 1118.617598 1371.919029 1116.096692 1372.135827 1113.572562 
C 1372.352625 1111.048432 1372.533367 1108.521335 1372.677998 1105.992044 
L 1107 1090.8 
L 1371.377409 1121.134507 
z
" style="fill:#fe7ac5;"/>
   </g>
   <g id="patch_45">
    <path d="M 1372.677998 1105.992044 
C 1372.822628 1103.462752 1372.931132 1100.931524 1373.003477 1098.399134 
C 1373.075822 1095.866744 1373.112 1093.33345 1373.112 1090.800026 
L 1107 1090.8 
L 1372.677998 1105.992044 
z
" style="fill:#e20c1d;"/>
   </g>
   <g id="patch_46">
    <path clip-path="url(#p671c9700b4)" d="M 1107 1623.024 
C 1248.147455 1623.024 1383.532877 1566.945522 1483.3392 1467.1392 
C 1583.145522 1367.332877 1639.224 1231.947455 1639.224 1090.8 
C 1639.224 949.652545 1583.145522 814.267123 1483.3392 714.4608 
C 1383.532877 614.654478 1248.147455 558.576 1107 558.576 
C 965.852545 558.576 830.467123 614.654478 730.6608 714.4608 
C 630.854478 814.267123 574.776 949.652545 574.776 1090.8 
C 574.776 1231.947455 630.854478 1367.332877 730.6608 1467.1392 
C 830.467123 1566.945522 965.852545 1623.024 1107 1623.024 
z
" style="fill:none;stroke:#ffffff;stroke-linejoin:miter;stroke-width:2;"/>
   </g>
   <g id="patch_47">
    <path clip-path="url(#p671c9700b4)" d="M 1107 1489.968 
C 1212.860591 1489.968 1314.399658 1447.909141 1389.2544 1373.0544 
C 1464.109141 1298.199658 1506.168 1196.660591 1506.168 1090.8 
C 1506.168 984.939409 1464.109141 883.400342 1389.2544 808.5456 
C 1314.399658 733.690859 1212.860591 691.632 1107 691.632 
C 1001.139409 691.632 899.600342 733.690859 824.7456 808.5456 
C 749.890859 883.400342 707.832 984.939409 707.832 1090.8 
C 707.832 1196.660591 749.890859 1298.199658 824.7456 1373.0544 
C 899.600342 1447.909141 1001.139409 1489.968 1107 1489.968 
z
" style="fill:none;stroke:#ffffff;stroke-linejoin:miter;stroke-width:2;"/>
   </g>
   <g id="patch_48">
    <path clip-path="url(#p671c9700b4)" d="M 1107 1356.912 
C 1177.573727 1356.912 1245.266439 1328.872761 1295.1696 1278.9696 
C 1345.072761 1229.066439 1373.112 1161.373727 1373.112 1090.8 
C 1373.112 1020.226273 1345.072761 952.533561 1295.1696 902.6304 
C 1245.266439 852.727239 1177.573727 824.688 1107 824.688 
C 1036.426273 824.688 968.733561 852.727239 918.8304 902.6304 
C 868.927239 952.533561 840.888 1020.226273 840.888 1090.8 
C 840.888 1161.373727 868.927239 1229.066439 918.8304 1278.9696 
C 968.733561 1328.872761 1036.426273 1356.912 1107 1356.912 
z
" style="fill:none;stroke:#ffffff;stroke-linejoin:miter;stroke-width:2;"/>
   </g>
   <g id="patch_49">
    <path clip-path="url(#p671c9700b4)" d="M 1107 1223.856 
C 1142.286864 1223.856 1176.133219 1209.83638 1201.0848 1184.8848 
C 1226.03638 1159.933219 1240.056 1126.086864 1240.056 1090.8 
C 1240.056 1055.513136 1226.03638 1021.666781 1201.0848 996.7152 
C 1176.133219 971.76362 1142.286864 957.744 1107 957.744 
C 1071.713136 957.744 1037.866781 971.76362 1012.9152 996.7152 
C 987.96362 1021.666781 973.944 1055.513136 973.944 1090.8 
C 973.944 1126.086864 987.96362 1159.933219 1012.9152 1184.8848 
C 1037.866781 1209.83638 1071.713136 1223.856 1107 1223.856 
z
" style="fill:none;stroke:#ffffff;stroke-linejoin:miter;stroke-width:2;"/>
   </g>
   <g id="patch_50">
    <path clip-path="url(#p671c9700b4)" d="M 1107 1223.856 
C 1142.286864 1223.856 1176.133219 1209.83638 1201.0848 1184.8848 
C 1226.03638 1159.933219 1240.056 1126.086864 1240.056 1090.8 
C 1240.056 1055.513136 1226.03638 1021.666781 1201.0848 996.7152 
C 1176.133219 971.76362 1142.286864 957.744 1107 957.744 
C 1071.713136 957.744 1037.866781 971.76362 1012.9152 996.7152 
C 987.96362 1021.666781 973.944 1055.513136 973.944 1090.8 
C 973.944 1126.086864 987.96362 1159.933219 1012.9152 1184.8848 
C 1037.866781 1209.83638 1071.713136 1223.856 1107 1223.856 
z
" style="fill:#ffffff;stroke:#ffffff;stroke-linejoin:miter;"/>
   </g>
   <g id="matplotlib.axis_1"/>
   <g id="matplotlib.axis_2"/>
   <g id="text_1">
    <!-- A -->
    <defs>
     <path d="M 34.1875 63.1875 
L 20.796875 26.90625 
L 47.609375 26.90625 
z
M 28.609375 72.90625 
L 39.796875 72.90625 
L 67.578125 0 
L 57.328125 0 
L 50.6875 18.703125 
L 17.828125 18.703125 
L 11.1875 0 
L 0.78125 0 
z
" id="DejaVuSans-65"/>
    </defs>
    <g transform="translate(1838.637978 1081.648556)scale(0.24 -0.24)">
     <use xlink:href="#DejaVuSans-65"/>
    </g>
   </g>
   <g id="text_2">
    <!-- A.1 -->
    <defs>
     <path d="M 10.6875 12.40625 
L 21 12.40625 
L 21 0 
L 10.6875 0 
z
" id="DejaVuSans-46"/>
     <path d="M 12.40625 8.296875 
L 28.515625 8.296875 
L 28.515625 63.921875 
L 10.984375 60.40625 
L 10.984375 69.390625 
L 28.421875 72.90625 
L 38.28125 72.90625 
L 38.28125 8.296875 
L 54.390625 8.296875 
L 54.390625 0 
L 12.40625 0 
z
" id="DejaVuSans-49"/>
    </defs>
    <g transform="translate(1756.667574 760.562006)scale(0.24 -0.24)">
     <use xlink:href="#DejaVuSans-65"/>
     <use x="66.658203" xlink:href="#DejaVuSans-46"/>
     <use x="98.445312" xlink:href="#DejaVuSans-49"/>
    </g>
   </g>
   <g id="text_3">
    <!-- A.3 -->
    <defs>
     <path d="M 40.578125 39.3125 
Q 47.65625 37.796875 51.625 33 
Q 55.609375 28.21875 55.609375 21.1875 
Q 55.609375 10.40625 48.1875 4.484375 
Q 40.765625 -1.421875 27.09375 -1.421875 
Q 22.515625 -1.421875 17.65625 -0.515625 
Q 12.796875 0.390625 7.625 2.203125 
L 7.625 11.71875 
Q 11.71875 9.328125 16.59375 8.109375 
Q 21.484375 6.890625 26.8125 6.890625 
Q 36.078125 6.890625 40.9375 10.546875 
Q 45.796875 14.203125 45.796875 21.1875 
Q 45.796875 27.640625 41.28125 31.265625 
Q 36.765625 34.90625 28.71875 34.90625 
L 20.21875 34.90625 
L 20.21875 43.015625 
L 29.109375 43.015625 
Q 36.375 43.015625 40.234375 45.921875 
Q 44.09375 48.828125 44.09375 54.296875 
Q 44.09375 59.90625 40.109375 62.90625 
Q 36.140625 65.921875 28.71875 65.921875 
Q 24.65625 65.921875 20.015625 65.03125 
Q 15.375 64.15625 9.8125 62.3125 
L 9.8125 71.09375 
Q 15.4375 72.65625 20.34375 73.4375 
Q 25.25 74.21875 29.59375 74.21875 
Q 40.828125 74.21875 47.359375 69.109375 
Q 53.90625 64.015625 53.90625 55.328125 
Q 53.90625 49.265625 50.4375 45.09375 
Q 46.96875 40.921875 40.578125 39.3125 
z
" id="DejaVuSans-51"/>
    </defs>
    <g transform="translate(1469.102569 461.478573)scale(0.24 -0.24)">
     <use xlink:href="#DejaVuSans-65"/>
     <use x="66.658203" xlink:href="#DejaVuSans-46"/>
     <use x="98.445312" xlink:href="#DejaVuSans-51"/>
    </g>
   </g>
   <g id="text_4">
    <!-- B.1 -->
    <defs>
     <path d="M 19.671875 34.8125 
L 19.671875 8.109375 
L 35.5 8.109375 
Q 43.453125 8.109375 47.28125 11.40625 
Q 51.125 14.703125 51.125 21.484375 
Q 51.125 28.328125 47.28125 31.5625 
Q 43.453125 34.8125 35.5 34.8125 
z
M 19.671875 64.796875 
L 19.671875 42.828125 
L 34.28125 42.828125 
Q 41.5 42.828125 45.03125 45.53125 
Q 48.578125 48.25 48.578125 53.8125 
Q 48.578125 59.328125 45.03125 62.0625 
Q 41.5 64.796875 34.28125 64.796875 
z
M 9.8125 72.90625 
L 35.015625 72.90625 
Q 46.296875 72.90625 52.390625 68.21875 
Q 58.5 63.53125 58.5 54.890625 
Q 58.5 48.1875 55.375 44.234375 
Q 52.25 40.28125 46.1875 39.3125 
Q 53.46875 37.75 57.5 32.78125 
Q 61.53125 27.828125 61.53125 20.40625 
Q 61.53125 10.640625 54.890625 5.3125 
Q 48.25 0 35.984375 0 
L 9.8125 0 
z
" id="DejaVuSans-66"/>
    </defs>
    <g transform="translate(370.482562 874.892312)scale(0.24 -0.24)">
     <use xlink:href="#DejaVuSans-66"/>
     <use x="68.603516" xlink:href="#DejaVuSans-46"/>
     <use x="100.390625" xlink:href="#DejaVuSans-49"/>
    </g>
   </g>
   <g id="text_5">
    <!-- B.1.1 -->
    <g transform="translate(1108.690242 1829.228548)scale(0.24 -0.24)">
     <use xlink:href="#DejaVuSans-66"/>
     <use x="68.603516" xlink:href="#DejaVuSans-46"/>
     <use x="100.390625" xlink:href="#DejaVuSans-49"/>
     <use x="164.013672" xlink:href="#DejaVuSans-46"/>
     <use x="195.800781" xlink:href="#DejaVuSans-49"/>
    </g>
   </g>
   <g id="text_6">
    <!-- B.1.1.1 -->
    <g transform="translate(1316.07187 1798.729781)scale(0.24 -0.24)">
     <use xlink:href="#DejaVuSans-66"/>
     <use x="68.603516" xlink:href="#DejaVuSans-46"/>
     <use x="100.390625" xlink:href="#DejaVuSans-49"/>
     <use x="164.013672" xlink:href="#DejaVuSans-46"/>
     <use x="195.800781" xlink:href="#DejaVuSans-49"/>
     <use x="259.423828" xlink:href="#DejaVuSans-46"/>
     <use x="291.210938" xlink:href="#DejaVuSans-49"/>
    </g>
   </g>
   <g id="text_7">
    <!-- B.1.3 -->
    <g transform="translate(1460.255373 1738.323109)scale(0.24 -0.24)">
     <use xlink:href="#DejaVuSans-66"/>
     <use x="68.603516" xlink:href="#DejaVuSans-46"/>
     <use x="100.390625" xlink:href="#DejaVuSans-49"/>
     <use x="164.013672" xlink:href="#DejaVuSans-46"/>
     <use x="195.800781" xlink:href="#DejaVuSans-51"/>
    </g>
   </g>
   <g id="text_8">
    <!-- B.1.5 -->
    <defs>
     <path d="M 10.796875 72.90625 
L 49.515625 72.90625 
L 49.515625 64.59375 
L 19.828125 64.59375 
L 19.828125 46.734375 
Q 21.96875 47.46875 24.109375 47.828125 
Q 26.265625 48.1875 28.421875 48.1875 
Q 40.625 48.1875 47.75 41.5 
Q 54.890625 34.8125 54.890625 23.390625 
Q 54.890625 11.625 47.5625 5.09375 
Q 40.234375 -1.421875 26.90625 -1.421875 
Q 22.3125 -1.421875 17.546875 -0.640625 
Q 12.796875 0.140625 7.71875 1.703125 
L 7.71875 11.625 
Q 12.109375 9.234375 16.796875 8.0625 
Q 21.484375 6.890625 26.703125 6.890625 
Q 35.15625 6.890625 40.078125 11.328125 
Q 45.015625 15.765625 45.015625 23.390625 
Q 45.015625 31 40.078125 35.4375 
Q 35.15625 39.890625 26.703125 39.890625 
Q 22.75 39.890625 18.8125 39.015625 
Q 14.890625 38.140625 10.796875 36.28125 
z
" id="DejaVuSans-53"/>
    </defs>
    <g transform="translate(1730.413851 1480.695404)scale(0.24 -0.24)">
     <use xlink:href="#DejaVuSans-66"/>
     <use x="68.603516" xlink:href="#DejaVuSans-46"/>
     <use x="100.390625" xlink:href="#DejaVuSans-49"/>
     <use x="164.013672" xlink:href="#DejaVuSans-46"/>
     <use x="195.800781" xlink:href="#DejaVuSans-53"/>
    </g>
   </g>
   <g id="text_9">
    <!-- B.1.26 -->
    <defs>
     <path d="M 19.1875 8.296875 
L 53.609375 8.296875 
L 53.609375 0 
L 7.328125 0 
L 7.328125 8.296875 
Q 12.9375 14.109375 22.625 23.890625 
Q 32.328125 33.6875 34.8125 36.53125 
Q 39.546875 41.84375 41.421875 45.53125 
Q 43.3125 49.21875 43.3125 52.78125 
Q 43.3125 58.59375 39.234375 62.25 
Q 35.15625 65.921875 28.609375 65.921875 
Q 23.96875 65.921875 18.8125 64.3125 
Q 13.671875 62.703125 7.8125 59.421875 
L 7.8125 69.390625 
Q 13.765625 71.78125 18.9375 73 
Q 24.125 74.21875 28.421875 74.21875 
Q 39.75 74.21875 46.484375 68.546875 
Q 53.21875 62.890625 53.21875 53.421875 
Q 53.21875 48.921875 51.53125 44.890625 
Q 49.859375 40.875 45.40625 35.40625 
Q 44.1875 33.984375 37.640625 27.21875 
Q 31.109375 20.453125 19.1875 8.296875 
z
" id="DejaVuSans-50"/>
     <path d="M 33.015625 40.375 
Q 26.375 40.375 22.484375 35.828125 
Q 18.609375 31.296875 18.609375 23.390625 
Q 18.609375 15.53125 22.484375 10.953125 
Q 26.375 6.390625 33.015625 6.390625 
Q 39.65625 6.390625 43.53125 10.953125 
Q 47.40625 15.53125 47.40625 23.390625 
Q 47.40625 31.296875 43.53125 35.828125 
Q 39.65625 40.375 33.015625 40.375 
z
M 52.59375 71.296875 
L 52.59375 62.3125 
Q 48.875 64.0625 45.09375 64.984375 
Q 41.3125 65.921875 37.59375 65.921875 
Q 27.828125 65.921875 22.671875 59.328125 
Q 17.53125 52.734375 16.796875 39.40625 
Q 19.671875 43.65625 24.015625 45.921875 
Q 28.375 48.1875 33.59375 48.1875 
Q 44.578125 48.1875 50.953125 41.515625 
Q 57.328125 34.859375 57.328125 23.390625 
Q 57.328125 12.15625 50.6875 5.359375 
Q 44.046875 -1.421875 33.015625 -1.421875 
Q 20.359375 -1.421875 13.671875 8.265625 
Q 6.984375 17.96875 6.984375 36.375 
Q 6.984375 53.65625 15.1875 63.9375 
Q 23.390625 74.21875 37.203125 74.21875 
Q 40.921875 74.21875 44.703125 73.484375 
Q 48.484375 72.75 52.59375 71.296875 
z
" id="DejaVuSans-54"/>
    </defs>
    <g transform="translate(1829.38528 1214.479993)scale(0.24 -0.24)">
     <use xlink:href="#DejaVuSans-66"/>
     <use x="68.603516" xlink:href="#DejaVuSans-46"/>
     <use x="100.390625" xlink:href="#DejaVuSans-49"/>
     <use x="164.013672" xlink:href="#DejaVuSans-46"/>
     <use x="195.800781" xlink:href="#DejaVuSans-50"/>
     <use x="259.423828" xlink:href="#DejaVuSans-54"/>
    </g>
   </g>
   <g id="text_10">
    <!-- B.2 -->
    <g transform="translate(1836.433426 1156.327734)scale(0.24 -0.24)">
     <use xlink:href="#DejaVuSans-66"/>
     <use x="68.603516" xlink:href="#DejaVuSans-46"/>
     <use x="100.390625" xlink:href="#DejaVuSans-50"/>
    </g>
   </g>
   <g id="text_11">
    <!-- B.2.1 -->
    <g transform="translate(1838.629787 1113.571909)scale(0.24 -0.24)">
     <use xlink:href="#DejaVuSans-66"/>
     <use x="68.603516" xlink:href="#DejaVuSans-46"/>
     <use x="100.390625" xlink:href="#DejaVuSans-50"/>
     <use x="164.013672" xlink:href="#DejaVuSans-46"/>
     <use x="195.800781" xlink:href="#DejaVuSans-49"/>
    </g>
   </g>
  </g>
 </g>
 <defs>
  <clipPath id="p671c9700b4">
   <rect height="1663.2" width="1663.2" x="275.4" y="259.2"/>
  </clipPath>
 </defs>
</svg>
